<?xml version="1.0" encoding="UTF-8" standalone="no"?>
<svg
   xmlns:osb="http://www.openswatchbook.org/uri/2009/osb"
   xmlns:dc="http://purl.org/dc/elements/1.1/"
   xmlns:cc="http://creativecommons.org/ns#"
   xmlns:rdf="http://www.w3.org/1999/02/22-rdf-syntax-ns#"
   xmlns:svg="http://www.w3.org/2000/svg"
   xmlns="http://www.w3.org/2000/svg"
   xmlns:xlink="http://www.w3.org/1999/xlink"
   id="svg5259"
   version="1.1"
   viewBox="0 0 16.971615 19.911581"
   height="19.911581mm"
   width="16.971615mm">
  <defs
     id="defs5253">
    <clipPath
       id="clipPath5141"
       clipPathUnits="userSpaceOnUse">
      <use
         height="100%"
         width="100%"
         id="use5143"
         xlink:href="#g5137"
         y="0"
         x="0" />
    </clipPath>
    <linearGradient
       osb:paint="solid"
       id="linearGradient4925">
      <stop
         id="stop4923"
         offset="0"
         style="stop-color:#ffffff;stop-opacity:1;" />
    </linearGradient>
    <clipPath
       id="clipPath5127"
       clipPathUnits="userSpaceOnUse">
      <rect
         ry="10.772835"
         y="183.61084"
         x="37.947071"
         height="81.873749"
         width="68.407669"
         id="rect5129"
         style="fill:none;fill-opacity:1;stroke:#2b2200;stroke-width:4.03071117;stroke-miterlimit:4;stroke-dasharray:none;stroke-opacity:1" />
    </clipPath>
    <clipPath
       id="clipPath5123"
       clipPathUnits="userSpaceOnUse">
      <rect
         ry="2.6726885"
         y="243.14517"
         x="88.599846"
         height="20.312483"
         width="16.971615"
         id="rect5125"
         style="fill:none;fill-opacity:1;stroke:#2b2200;stroke-width:1;stroke-miterlimit:4;stroke-dasharray:none;stroke-opacity:1" />
    </clipPath>
    <linearGradient
       osb:paint="solid"
       id="linearGradient5042">
      <stop
         id="stop5040"
         offset="0"
         style="stop-color:#2b2200;stop-opacity:1;" />
    </linearGradient>
    <clipPath
       id="clipPath5119"
       clipPathUnits="userSpaceOnUse">
      <rect
         ry="2.6726885"
         y="243.14517"
         x="88.599846"
         height="20.312483"
         width="16.971615"
         id="rect5121"
         style="fill:none;fill-opacity:1;stroke:#2b2200;stroke-width:1;stroke-miterlimit:4;stroke-dasharray:none;stroke-opacity:1" />
    </clipPath>
    <linearGradient
       y2="224.69716"
       x2="104.98517"
       y1="224.69716"
       x1="39.445656"
       gradientUnits="userSpaceOnUse"
       id="linearGradient5333"
       xlink:href="#linearGradient4925" />
    <linearGradient
       y2="224.69716"
       x2="104.98517"
       y1="224.69716"
       x1="39.445656"
       gradientUnits="userSpaceOnUse"
       id="linearGradient5335"
       xlink:href="#linearGradient4925" />
    <linearGradient
       y2="224.69716"
       x2="104.98517"
       y1="224.69716"
       x1="39.445656"
       gradientUnits="userSpaceOnUse"
       id="linearGradient5337"
       xlink:href="#linearGradient4925" />
    <linearGradient
       y2="224.69716"
       x2="104.98517"
       y1="224.69716"
       x1="39.445656"
       gradientUnits="userSpaceOnUse"
       id="linearGradient5339"
       xlink:href="#linearGradient4925" />
    <linearGradient
       y2="252.23235"
       x2="107.27417"
       y1="252.23235"
       x1="86.62986"
       gradientUnits="userSpaceOnUse"
       id="linearGradient5341"
       xlink:href="#linearGradient5042" />
  </defs>
  <metadata
     id="metadata5256">
    <rdf:RDF>
      <cc:Work
         rdf:about="">
        <dc:format>image/svg+xml</dc:format>
        <dc:type
           rdf:resource="http://purl.org/dc/dcmitype/StillImage" />
        <dc:title></dc:title>
      </cc:Work>
    </rdf:RDF>
  </metadata>
  <g
     transform="translate(-31.021783,-112.53475)"
     id="layer1">
    <g
       transform="translate(-57.578063,-130.61042)"
       clip-path="url(#clipPath5141)"
       id="g5139">
      <g
         id="g5137">
        <g
           id="g438"
           style="fill:none;fill-opacity:1;stroke:url(#linearGradient5339);stroke-width:1;stroke-miterlimit:4;stroke-dasharray:none"
           transform="matrix(0.24809519,0,0,0.24809519,79.185363,197.59221)"
           clip-path="url(#clipPath5127)">
          <path
             id="path5044"
             d="m 39.823162,194.63576 c -0.210703,4.14831 8.789399,10.27272 9.178364,6.32612 -2.808198,-4.37042 -8.527878,3.15827 -6.551417,9.19693 7.668703,-10.96107 9.09596,-2.50106 20.069905,-1.94732 4.031548,-0.0825 15.072782,1.26904 18.353522,-1.61608 1.919478,-2.31599 5.220383,-1.81778 7.040854,0.14403 5.954391,6.32889 -0.185038,10.80976 -0.572033,16.3238 -0.298399,-0.0776 -6.297609,8.37405 -2.779623,8.13026 0.78518,-0.0544 7.316243,-3.92134 3.134839,-5.33553 -1.655244,-0.55982 -0.655188,8.40296 1.777494,6.39542 0.518939,-10.23373 8.906478,-17.57352 8.802058,-6.43054 -0.243591,6.45533 -4.225788,13.5014 -6.949469,12.26186 0.431214,-1.29365 -2.106754,6.32314 -1.658563,5.3537"
             style="fill:none;fill-opacity:1;fill-rule:evenodd;stroke:url(#linearGradient5333);stroke-width:1;stroke-linecap:butt;stroke-linejoin:miter;stroke-miterlimit:4;stroke-dasharray:none;stroke-opacity:1" />
          <path
             id="path5046"
             d="m 51.913189,205.34293 c -5.504903,13.81314 -0.06164,16.70515 -3.180107,27.73608 -2.208129,9.32509 -1.588097,18.16606 5.23816,25.60297 5.670732,4.81378 14.740586,5.09722 24.029791,-0.85163 5.360872,-3.6027 8.929522,-6.53899 10.371832,-11.7744"
             style="fill:none;fill-opacity:1;fill-rule:evenodd;stroke:url(#linearGradient5335);stroke-width:1;stroke-linecap:butt;stroke-linejoin:miter;stroke-miterlimit:4;stroke-dasharray:none;stroke-opacity:1" />
          <path
             style="fill:none;fill-opacity:1;fill-rule:evenodd;stroke:url(#linearGradient5337);stroke-width:1;stroke-linecap:butt;stroke-linejoin:miter;stroke-miterlimit:4;stroke-dasharray:none;stroke-opacity:1"
             d="m 92.656925,244.99936 c -0.04366,0.21732 9.085925,-9.57808 12.071215,-22.56013 0.68919,-9.6007 -2.93276,-24.11837 -7.724268,-24.86893 1.154285,0.79252 2.678459,0.11844 6.451188,0.70902 -3.912604,-6.17238 -7.310588,-2.36962 -7.617375,-3.8253 1.310208,-4.91202 -4.576264,-3.73942 -4.909296,-7.46999 0.206291,2.99732 1.109019,3.07921 1.162029,6.10266 -6.201458,-7.77796 -11.765375,-3.67108 -17.079794,-4.0608 -3.578759,-0.57708 -3.782349,-2.61237 -12.266709,-1.18214 -8.649886,1.28719 -15.140577,15.66509 -23.167828,6.3941"
             id="path5150" />
        </g>
        <rect
           style="fill:none;fill-opacity:1;stroke:#ffffff;stroke-width:1;stroke-miterlimit:4;stroke-dasharray:none;stroke-opacity:0"
           id="rect5009"
           width="16.971615"
           height="19.377031"
           x="88.466217"
           y="243.14517"
           clip-path="url(#clipPath5123)" />
        <rect
           style="fill:none;fill-opacity:1;stroke:url(#linearGradient5341);stroke-width:1;stroke-miterlimit:4;stroke-dasharray:none;stroke-opacity:0"
           id="rect5032"
           width="19.64431"
           height="21.648825"
           x="87.12986"
           y="241.40793"
           clip-path="url(#clipPath5119)" />
      </g>
    </g>
  </g>
</svg>
