<?xml version="1.0" encoding="UTF-8" standalone="no"?>
<svg
   xmlns:osb="http://www.openswatchbook.org/uri/2009/osb"
   xmlns:dc="http://purl.org/dc/elements/1.1/"
   xmlns:cc="http://creativecommons.org/ns#"
   xmlns:rdf="http://www.w3.org/1999/02/22-rdf-syntax-ns#"
   xmlns:svg="http://www.w3.org/2000/svg"
   xmlns="http://www.w3.org/2000/svg"
   xmlns:xlink="http://www.w3.org/1999/xlink"
   xmlns:sodipodi="http://sodipodi.sourceforge.net/DTD/sodipodi-0.dtd"
   xmlns:inkscape="http://www.inkscape.org/namespaces/inkscape"
   id="svg4491"
   version="1.1"
   viewBox="0 0 132.47708 132.42917"
   height="500.51968"
   width="500.70078"
   sodipodi:docname="placeholder.svg"
   inkscape:version="0.92.1 r">
  <sodipodi:namedview
     pagecolor="#ffffff"
     bordercolor="#666666"
     borderopacity="1"
     objecttolerance="10"
     gridtolerance="10"
     guidetolerance="10"
     inkscape:pageopacity="0"
     inkscape:pageshadow="2"
     inkscape:window-width="1920"
     inkscape:window-height="1080"
     id="namedview4583"
     showgrid="false"
     inkscape:pagecheckerboard="true"
     inkscape:zoom="1.7901394"
     inkscape:cx="205.66113"
     inkscape:cy="278.23016"
     inkscape:window-x="-1"
     inkscape:window-y="-32"
     inkscape:window-maximized="1"
     inkscape:current-layer="svg4491"
     showguides="false" />
  <defs
     id="defs4485">
    <linearGradient
       osb:paint="solid"
       id="linearGradient4925">
      <stop
         id="stop4923"
         offset="0"
         style="stop-color:#ffffff;stop-opacity:1;" />
    </linearGradient>
    <linearGradient
       gradientUnits="userSpaceOnUse"
       y2="224.69716"
       x2="104.98517"
       y1="224.69716"
       x1="39.445657"
       id="linearGradient4927"
       xlink:href="#linearGradient4925" />
    <linearGradient
       inkscape:collect="always"
       xlink:href="#linearGradient4925"
       id="linearGradient4585"
       gradientUnits="userSpaceOnUse"
       x1="39.445657"
       y1="224.69716"
       x2="104.98517"
       y2="224.69716" />
    <linearGradient
       inkscape:collect="always"
       xlink:href="#linearGradient4925"
       id="linearGradient4587"
       gradientUnits="userSpaceOnUse"
       x1="39.445657"
       y1="224.69716"
       x2="104.98517"
       y2="224.69716" />
    <linearGradient
       inkscape:collect="always"
       xlink:href="#linearGradient4925"
       id="linearGradient4589"
       gradientUnits="userSpaceOnUse"
       x1="39.445657"
       y1="224.69716"
       x2="104.98517"
       y2="224.69716" />
  </defs>
  <metadata
     id="metadata4488">
    <rdf:RDF>
      <cc:Work
         rdf:about="">
        <dc:format>image/svg+xml</dc:format>
        <dc:type
           rdf:resource="http://purl.org/dc/dcmitype/StillImage" />
        <dc:title></dc:title>
      </cc:Work>
    </rdf:RDF>
  </metadata>
  <g
     transform="matrix(1.6594417,0,0,1.6594417,-61.153549,-305.67378)"
     id="layer1"
     style="stroke-width:1.80000007;stroke-miterlimit:4;stroke-dasharray:none">
    <g
       style="fill:none;fill-opacity:1;stroke:url(#linearGradient4927);stroke-width:1.80000007;stroke-miterlimit:4;stroke-dasharray:none"
       id="g438">
      <path
         style="fill:none;fill-opacity:1;fill-rule:evenodd;stroke:url(#linearGradient4585);stroke-width:0.80000001;stroke-linecap:square;stroke-linejoin:miter;stroke-miterlimit:4;stroke-dasharray:none;stroke-opacity:1"
         d="m 39.823162,194.63576 c -0.210703,4.14831 8.789399,10.27272 9.178364,6.32612 -2.808198,-4.37042 -8.527878,3.15827 -6.551417,9.19693 7.668703,-10.96107 9.09596,-2.50106 20.069905,-1.94732 4.031548,-0.0825 15.072782,1.26904 18.353522,-1.61608 1.919478,-2.31599 5.220383,-1.81778 7.040854,0.14403 5.954391,6.32889 -0.185038,10.80976 -0.572033,16.3238 -0.298399,-0.0776 -6.297609,8.37405 -2.779623,8.13026 0.78518,-0.0544 7.316243,-3.92134 3.134839,-5.33553 -1.655244,-0.55982 -0.655188,8.40296 1.777494,6.39542 0.518939,-10.23373 8.906478,-17.57352 8.802058,-6.43054 -0.243591,6.45533 -4.225788,13.5014 -6.949469,12.26186 0.431214,-1.29365 -2.106754,6.32314 -1.658563,5.3537"
         id="path5044"
         inkscape:connector-curvature="0" />
      <path
         style="fill:none;fill-opacity:1;fill-rule:evenodd;stroke:url(#linearGradient4587);stroke-width:1;stroke-linecap:butt;stroke-linejoin:miter;stroke-miterlimit:4;stroke-dasharray:none;stroke-opacity:1"
         d="m 51.913189,205.34293 c -5.504903,13.81314 -0.06164,16.70515 -3.180107,27.73608 -2.208129,9.32509 -1.588097,18.16606 5.23816,25.60297 5.670732,4.81378 14.740586,5.09722 24.029791,-0.85163 5.360872,-3.6027 8.929522,-6.53899 10.371832,-11.7744"
         id="path5046"
         inkscape:connector-curvature="0" />
      <path
         id="path5150"
         d="m 92.656925,244.99936 c 3.355749,-4.80789 9.085925,-9.57808 12.071215,-22.56013 0.68919,-9.6007 -2.93276,-24.11837 -7.724268,-24.86893 1.154285,0.79252 2.678459,0.11844 6.451188,0.70902 -3.912604,-6.17238 -7.310588,-2.36962 -7.617375,-3.8253 2.037403,-4.85142 -0.977124,-3.43949 -4.909296,-7.46999 1.578927,1.67772 2.479456,3.42182 1.162029,6.10266 -6.201458,-7.77796 -11.765375,-3.67108 -17.079794,-4.0608 -3.578759,-0.57708 -3.782349,-2.61237 -12.266709,-1.18214 -8.649886,1.28719 -15.140577,15.66509 -23.167828,6.3941"
         style="fill:none;fill-opacity:1;fill-rule:evenodd;stroke:url(#linearGradient4589);stroke-width:1;stroke-linecap:butt;stroke-linejoin:miter;stroke-miterlimit:4;stroke-dasharray:none;stroke-opacity:1"
         inkscape:connector-curvature="0"
         sodipodi:nodetypes="cccccccccc" />
    </g>
    <rect
       y="181.94046"
       x="36.482288"
       height="84.189903"
       width="72.162773"
       id="rect4929"
       style="fill:none;fill-opacity:1;stroke:#ffffff;stroke-width:1.80000007;stroke-miterlimit:4;stroke-dasharray:none;stroke-opacity:0" />
  </g>
</svg>
