<?xml version="1.0" encoding="UTF-8" standalone="no"?>
<!-- Created with Inkscape (http://www.inkscape.org/) -->

<svg
   xmlns:osb="http://www.openswatchbook.org/uri/2009/osb"
   xmlns:dc="http://purl.org/dc/elements/1.1/"
   xmlns:cc="http://creativecommons.org/ns#"
   xmlns:rdf="http://www.w3.org/1999/02/22-rdf-syntax-ns#"
   xmlns:svg="http://www.w3.org/2000/svg"
   xmlns="http://www.w3.org/2000/svg"
   xmlns:xlink="http://www.w3.org/1999/xlink"
   xmlns:sodipodi="http://sodipodi.sourceforge.net/DTD/sodipodi-0.dtd"
   xmlns:inkscape="http://www.inkscape.org/namespaces/inkscape"
   width="16.971615mm"
   height="19.911581mm"
   viewBox="0 0 16.971615 19.911581"
   version="1.1"
   id="svg5259"
   inkscape:version="0.92.1 r"
   sodipodi:docname="placeholder-small.svg">
  <defs
     id="defs5253">
    <linearGradient
       id="linearGradient6212"
       osb:paint="solid">
      <stop
         style="stop-color:#000000;stop-opacity:1;"
         offset="0"
         id="stop6210" />
    </linearGradient>
    <linearGradient
       id="linearGradient6204"
       osb:paint="solid">
      <stop
         style="stop-color:#000000;stop-opacity:1;"
         offset="0"
         id="stop6202" />
    </linearGradient>
    <linearGradient
       id="linearGradient6107"
       osb:paint="solid">
      <stop
         style="stop-color:#000000;stop-opacity:1;"
         offset="0"
         id="stop6105" />
    </linearGradient>
    <clipPath
       clipPathUnits="userSpaceOnUse"
       id="clipPath5141">
      <g
         style="fill:none;fill-opacity:1"
         id="use5143"
         inkscape:label="Clip">
        <g
           id="g6175"
           style="fill:none;fill-opacity:1;stroke:url(#linearGradient6189);stroke-width:1;stroke-miterlimit:4;stroke-dasharray:none"
           transform="matrix(0.24809519,0,0,0.24809519,79.185363,197.59221)"
           clip-path="url(#clipPath5127)">
          <path
             sodipodi:nodetypes="cccccccsscccc"
             inkscape:connector-curvature="0"
             id="path6169"
             d="m 39.823162,194.63576 c -0.210703,4.14831 8.789399,10.27272 9.178364,6.32612 -2.808198,-4.37042 -8.527878,3.15827 -6.551417,9.19693 7.668703,-10.96107 9.09596,-2.50106 20.069905,-1.94732 4.031548,-0.0825 15.072782,1.26904 18.353522,-1.61608 1.919478,-2.31599 5.220383,-1.81778 7.040854,0.14403 5.954391,6.32889 -0.185038,10.80976 -0.572033,16.3238 -0.298399,-0.0776 -6.297609,8.37405 -2.779623,8.13026 0.78518,-0.0544 7.316243,-3.92134 3.134839,-5.33553 -1.655244,-0.55982 -0.655188,8.40296 1.777494,6.39542 0.518939,-10.23373 8.906478,-17.57352 8.802058,-6.43054 -0.243591,6.45533 -4.225788,13.5014 -6.949469,12.26186 0.431214,-1.29365 -2.106754,6.32314 -1.658563,5.3537"
             style="fill:none;fill-opacity:1;fill-rule:evenodd;stroke:url(#linearGradient6183);stroke-width:1;stroke-linecap:butt;stroke-linejoin:miter;stroke-miterlimit:4;stroke-dasharray:none;stroke-opacity:1" />
          <path
             sodipodi:nodetypes="ccccc"
             inkscape:connector-curvature="0"
             id="path6171"
             d="m 51.913189,205.34293 c -5.504903,13.81314 -0.06164,16.70515 -3.180107,27.73608 -2.208129,9.32509 -1.588097,18.16606 5.23816,25.60297 5.670732,4.81378 14.740586,5.09722 24.029791,-0.85163 5.360872,-3.6027 8.929522,-6.53899 10.371832,-11.7744"
             style="fill:none;fill-opacity:1;fill-rule:evenodd;stroke:url(#linearGradient6185);stroke-width:1;stroke-linecap:butt;stroke-linejoin:miter;stroke-miterlimit:4;stroke-dasharray:none;stroke-opacity:1" />
          <path
             style="fill:none;fill-opacity:1;fill-rule:evenodd;stroke:url(#linearGradient6187);stroke-width:1;stroke-linecap:butt;stroke-linejoin:miter;stroke-miterlimit:4;stroke-dasharray:none;stroke-opacity:1"
             d="m 92.656925,244.99936 c -0.04366,0.21732 9.085925,-9.57808 12.071215,-22.56013 0.68919,-9.6007 -2.93276,-24.11837 -7.724268,-24.86893 1.154285,0.79252 2.678459,0.11844 6.451188,0.70902 -3.912604,-6.17238 -7.310588,-2.36962 -7.617375,-3.8253 1.310208,-4.91202 -4.576264,-3.73942 -4.909296,-7.46999 0.206291,2.99732 1.109019,3.07921 1.162029,6.10266 -6.201458,-7.77796 -11.765375,-3.67108 -17.079794,-4.0608 -3.578759,-0.57708 -3.782349,-2.61237 -12.266709,-1.18214 -8.649886,1.28719 -15.140577,15.66509 -23.167828,6.3941"
             id="path6173"
             inkscape:connector-curvature="0"
             sodipodi:nodetypes="cccccccccc" />
        </g>
        <rect
           style="fill:none;fill-opacity:1;stroke:#ffffff;stroke-width:1;stroke-miterlimit:4;stroke-dasharray:none;stroke-opacity:0"
           id="rect6177"
           width="16.971615"
           height="19.377031"
           x="88.466217"
           y="243.14517"
           clip-path="url(#clipPath5123)" />
        <rect
           style="fill:none;fill-opacity:1;stroke:url(#linearGradient6191);stroke-width:1;stroke-miterlimit:4;stroke-dasharray:none;stroke-opacity:0"
           id="rect6179"
           width="19.64431"
           height="21.648825"
           x="87.12986"
           y="241.40793"
           clip-path="url(#clipPath5119)" />
      </g>
    </clipPath>
    <linearGradient
       id="linearGradient4925"
       osb:paint="solid">
      <stop
         style="stop-color:#ffffff;stop-opacity:1;"
         offset="0"
         id="stop4923" />
    </linearGradient>
    <clipPath
       clipPathUnits="userSpaceOnUse"
       id="clipPath5127">
      <rect
         style="fill:none;fill-opacity:1;stroke:#2b2200;stroke-width:4.03071117;stroke-miterlimit:4;stroke-dasharray:none;stroke-opacity:1"
         id="rect5129"
         width="68.407669"
         height="81.873749"
         x="37.947071"
         y="183.61084"
         ry="10.772835" />
    </clipPath>
    <clipPath
       clipPathUnits="userSpaceOnUse"
       id="clipPath5123">
      <rect
         style="fill:none;fill-opacity:1;stroke:#2b2200;stroke-width:1;stroke-miterlimit:4;stroke-dasharray:none;stroke-opacity:1"
         id="rect5125"
         width="16.971615"
         height="20.312483"
         x="88.599846"
         y="243.14517"
         ry="2.6726885" />
    </clipPath>
    <linearGradient
       id="linearGradient5042"
       osb:paint="solid">
      <stop
         style="stop-color:#2b2200;stop-opacity:1;"
         offset="0"
         id="stop5040" />
    </linearGradient>
    <clipPath
       clipPathUnits="userSpaceOnUse"
       id="clipPath5119">
      <rect
         style="fill:none;fill-opacity:1;stroke:#2b2200;stroke-width:1;stroke-miterlimit:4;stroke-dasharray:none;stroke-opacity:1"
         id="rect5121"
         width="16.971615"
         height="20.312483"
         x="88.599846"
         y="243.14517"
         ry="2.6726885" />
    </clipPath>
    <linearGradient
       inkscape:collect="always"
       xlink:href="#linearGradient4925"
       id="linearGradient6159"
       gradientUnits="userSpaceOnUse"
       x1="39.445656"
       y1="224.69716"
       x2="104.98517"
       y2="224.69716"
       gradientTransform="matrix(0.24809519,0,0,0.24809519,79.185363,197.59221)" />
    <linearGradient
       inkscape:collect="always"
       xlink:href="#linearGradient4925"
       id="linearGradient6161"
       gradientUnits="userSpaceOnUse"
       x1="39.445656"
       y1="224.69716"
       x2="104.98517"
       y2="224.69716"
       gradientTransform="matrix(0.24809519,0,0,0.24809519,79.185363,197.59221)" />
    <linearGradient
       inkscape:collect="always"
       xlink:href="#linearGradient4925"
       id="linearGradient6163"
       gradientUnits="userSpaceOnUse"
       x1="39.445656"
       y1="224.69716"
       x2="104.98517"
       y2="224.69716"
       gradientTransform="matrix(0.24809519,0,0,0.24809519,79.185363,197.59221)" />
    <linearGradient
       inkscape:collect="always"
       xlink:href="#linearGradient5042"
       id="linearGradient6167"
       gradientUnits="userSpaceOnUse"
       x1="86.62986"
       y1="252.23235"
       x2="107.27417"
       y2="252.23235" />
    <linearGradient
       inkscape:collect="always"
       xlink:href="#linearGradient4925"
       id="linearGradient6183"
       gradientUnits="userSpaceOnUse"
       x1="39.445656"
       y1="224.69716"
       x2="104.98517"
       y2="224.69716" />
    <linearGradient
       inkscape:collect="always"
       xlink:href="#linearGradient4925"
       id="linearGradient6185"
       gradientUnits="userSpaceOnUse"
       x1="39.445656"
       y1="224.69716"
       x2="104.98517"
       y2="224.69716" />
    <linearGradient
       inkscape:collect="always"
       xlink:href="#linearGradient4925"
       id="linearGradient6187"
       gradientUnits="userSpaceOnUse"
       x1="39.445656"
       y1="224.69716"
       x2="104.98517"
       y2="224.69716" />
    <linearGradient
       inkscape:collect="always"
       xlink:href="#linearGradient4925"
       id="linearGradient6189"
       gradientUnits="userSpaceOnUse"
       x1="39.445656"
       y1="224.69716"
       x2="104.98517"
       y2="224.69716" />
    <linearGradient
       inkscape:collect="always"
       xlink:href="#linearGradient5042"
       id="linearGradient6191"
       gradientUnits="userSpaceOnUse"
       x1="86.62986"
       y1="252.23235"
       x2="107.27417"
       y2="252.23235" />
    <linearGradient
       inkscape:collect="always"
       xlink:href="#linearGradient6204"
       id="linearGradient6206"
       x1="88.910221"
       y1="251.22366"
       x2="105.31302"
       y2="251.22366"
       gradientUnits="userSpaceOnUse" />
    <linearGradient
       inkscape:collect="always"
       xlink:href="#linearGradient6204"
       id="linearGradient6208"
       x1="88.9403"
       y1="252.00257"
       x2="103.69175"
       y2="252.00257"
       gradientUnits="userSpaceOnUse" />
    <linearGradient
       inkscape:collect="always"
       xlink:href="#linearGradient6212"
       id="linearGradient6214"
       x1="90.870476"
       y1="255.63987"
       x2="101.22984"
       y2="255.63987"
       gradientUnits="userSpaceOnUse" />
  </defs>
  <sodipodi:namedview
     id="base"
     pagecolor="#ffffff"
     bordercolor="#666666"
     borderopacity="1.0"
     inkscape:pageopacity="0.0"
     inkscape:pageshadow="2"
     inkscape:zoom="7.0843261"
     inkscape:cx="41.868101"
     inkscape:cy="56.675918"
     inkscape:document-units="mm"
     inkscape:current-layer="g5139"
     showgrid="false"
     fit-margin-top="0"
     fit-margin-left="0"
     fit-margin-right="0"
     fit-margin-bottom="0"
     inkscape:window-width="1920"
     inkscape:window-height="1080"
     inkscape:window-x="-1"
     inkscape:window-y="-32"
     inkscape:window-maximized="1"
     inkscape:pagecheckerboard="true" />
  <metadata
     id="metadata5256">
    <rdf:RDF>
      <cc:Work
         rdf:about="">
        <dc:format>image/svg+xml</dc:format>
        <dc:type
           rdf:resource="http://purl.org/dc/dcmitype/StillImage" />
        <dc:title></dc:title>
      </cc:Work>
    </rdf:RDF>
  </metadata>
  <g
     inkscape:label="Layer 1"
     inkscape:groupmode="layer"
     id="layer1"
     transform="translate(-31.021783,-112.53475)">
    <g
       id="g5139"
       clip-path="url(#clipPath5141)"
       transform="translate(-57.578063,-130.61042)">
      <path
         style="fill:url(#linearGradient6208);fill-opacity:1;fill-rule:evenodd;stroke:url(#linearGradient6159);stroke-width:0.24809518;stroke-linecap:butt;stroke-linejoin:miter;stroke-miterlimit:4;stroke-dasharray:none;stroke-opacity:1"
         d="m 89.065298,245.88041 c -0.05227,1.02917 2.180608,2.54861 2.277108,1.56948 -0.696701,-1.08428 -2.115726,0.78355 -1.625375,2.28171 1.902568,-2.71939 2.256664,-0.6205 4.979247,-0.48312 1.000207,-0.0205 3.739484,0.31484 4.55342,-0.40094 0.476214,-0.57459 1.295152,-0.45098 1.746802,0.0357 1.47726,1.57017 -0.0459,2.68185 -0.14192,4.04986 -0.074,-0.0193 -1.562405,2.07756 -0.68961,2.01708 0.1948,-0.0135 1.81513,-0.97287 0.77774,-1.32372 -0.41066,-0.13889 -0.16255,2.08473 0.44099,1.58667 0.12874,-2.53894 2.20965,-4.35991 2.18374,-1.59539 -0.0604,1.60154 -1.04839,3.34964 -1.72412,3.04211 0.10698,-0.32095 -0.52268,1.56874 -0.41149,1.32823"
         id="path5044"
         inkscape:connector-curvature="0"
         sodipodi:nodetypes="cccccccsscccc" />
      <path
         style="fill:url(#linearGradient6214);fill-opacity:1;fill-rule:evenodd;stroke:url(#linearGradient6161);stroke-width:0.24809518;stroke-linecap:butt;stroke-linejoin:miter;stroke-miterlimit:4;stroke-dasharray:none;stroke-opacity:1"
         d="m 92.064775,248.5368 c -1.365739,3.42698 -0.01529,4.14447 -0.788969,6.88119 -0.547826,2.31351 -0.393999,4.50691 1.299563,6.35197 1.406881,1.19428 3.657068,1.2646 5.961675,-0.21128 1.330007,-0.89381 2.215376,-1.62229 2.573206,-2.92117"
         id="path5046"
         inkscape:connector-curvature="0"
         sodipodi:nodetypes="ccccc" />
      <path
         sodipodi:nodetypes="cccccccccc"
         inkscape:connector-curvature="0"
         id="path5150"
         d="m 102.1731,258.37537 c -0.0108,0.0539 2.25417,-2.37627 2.99481,-5.59706 0.17099,-2.38188 -0.7276,-5.98365 -1.91635,-6.16986 0.28637,0.19662 0.66451,0.0294 1.60051,0.17591 -0.9707,-1.53134 -1.81373,-0.5879 -1.88984,-0.94904 0.32506,-1.21865 -1.13535,-0.92774 -1.21797,-1.85327 0.0512,0.74362 0.27514,0.76394 0.28829,1.51404 -1.53855,-1.92968 -2.91893,-0.91078 -4.237412,-1.00747 -0.887873,-0.14317 -0.938383,-0.64811 -3.043311,-0.29328 -2.145996,0.31935 -3.756305,3.88643 -5.747827,1.58635"
         style="fill:url(#linearGradient6206);fill-opacity:1;fill-rule:evenodd;stroke:url(#linearGradient6163);stroke-width:0.24809518;stroke-linecap:butt;stroke-linejoin:miter;stroke-miterlimit:4;stroke-dasharray:none;stroke-opacity:1" />
      <rect
         style="fill:none;fill-opacity:1;stroke:#ffffff;stroke-width:1;stroke-miterlimit:4;stroke-dasharray:none;stroke-opacity:0"
         id="rect5009"
         width="16.971615"
         height="19.377031"
         x="88.466217"
         y="243.14517"
         clip-path="url(#clipPath5123)" />
      <rect
         style="fill:none;fill-opacity:1;stroke:url(#linearGradient6167);stroke-width:1;stroke-miterlimit:4;stroke-dasharray:none;stroke-opacity:0"
         id="rect5032"
         width="19.64431"
         height="21.648825"
         x="87.12986"
         y="241.40793"
         clip-path="url(#clipPath5119)" />
    </g>
  </g>
</svg>
